<svg width="24" height="24" viewBox="0 0 24 24" fill="none" xmlns="http://www.w3.org/2000/svg">
<path fill-rule="evenodd" clip-rule="evenodd" d="M3.5812 14.1047C2.80627 14.8796 2.80627 16.136 3.5812 16.911L7.08903 20.4188C7.86396 21.1937 9.12037 21.1937 9.8953 20.4188L20.4188 9.8953C21.1937 9.12037 21.1937 7.86396 20.4188 7.08903L16.911 3.5812C16.136 2.80627 14.8796 2.80627 14.1047 3.5812L3.5812 14.1047ZM7.19146 15.9299C7.48436 15.637 7.48436 15.1621 7.19146 14.8692C6.89857 14.5763 6.4237 14.5763 6.1308 14.8692C5.83791 15.1621 5.83791 15.637 6.1308 15.9299C6.4237 16.2228 6.89857 16.2228 7.19146 15.9299ZM8.95929 14.162C9.25218 13.8691 9.25218 13.3943 8.95929 13.1014C8.66639 12.8085 8.19152 12.8085 7.89863 13.1014C7.60573 13.3943 7.60573 13.8691 7.89863 14.162C8.19152 14.4549 8.66639 14.4549 8.95929 14.162ZM10.7271 11.3336C11.02 11.6264 11.02 12.1013 10.7271 12.3942C10.4342 12.6871 9.95934 12.6871 9.66645 12.3942C9.37355 12.1013 9.37355 11.6264 9.66645 11.3336C9.95934 11.0407 10.4342 11.0407 10.7271 11.3336ZM12.4947 10.6266C12.7876 10.3337 12.7876 9.85887 12.4947 9.56597C12.2018 9.27308 11.7269 9.27308 11.434 9.56597C11.1411 9.85887 11.1411 10.3337 11.434 10.6266C11.7269 10.9195 12.2018 10.9195 12.4947 10.6266ZM14.2625 7.79815C14.5554 8.09105 14.5554 8.56592 14.2625 8.85881C13.9696 9.15171 13.4947 9.15171 13.2018 8.85881C12.909 8.56592 12.909 8.09105 13.2018 7.79815C13.4947 7.50526 13.9696 7.50526 14.2625 7.79815ZM16.0303 7.09099C16.3232 6.7981 16.3232 6.32322 16.0303 6.03033C15.7374 5.73744 15.2626 5.73744 14.9697 6.03033C14.6768 6.32322 14.6768 6.7981 14.9697 7.09099C15.2626 7.38388 15.7374 7.38388 16.0303 7.09099ZM8.95929 16.637C9.25218 16.9299 9.25218 17.4048 8.95929 17.6977C8.66639 17.9906 8.19152 17.9906 7.89863 17.6977C7.60573 17.4048 7.60573 16.9299 7.89863 16.637C8.19152 16.3441 8.66639 16.3441 8.95929 16.637ZM10.7271 14.8692C11.02 15.1621 11.02 15.637 10.7271 15.9299C10.4342 16.2228 9.95934 16.2228 9.66645 15.9299C9.37355 15.637 9.37355 15.1621 9.66645 14.8692C9.95934 14.5763 10.4342 14.5763 10.7271 14.8692ZM12.4949 14.162C12.7878 13.8691 12.7878 13.3943 12.4949 13.1014C12.202 12.8085 11.7272 12.8085 11.4343 13.1014C11.1414 13.3943 11.1414 13.8691 11.4343 14.162C11.7272 14.4549 12.202 14.4549 12.4949 14.162ZM14.2625 11.3338C14.5554 11.6267 14.5554 12.1016 14.2625 12.3945C13.9696 12.6874 13.4947 12.6874 13.2018 12.3945C12.909 12.1016 12.909 11.6267 13.2018 11.3338C13.4947 11.0409 13.9696 11.0409 14.2625 11.3338ZM16.0303 10.6266C16.3232 10.3337 16.3232 9.85887 16.0303 9.56597C15.7374 9.27308 15.2626 9.27308 14.9697 9.56597C14.6768 9.85887 14.6768 10.3337 14.9697 10.6266C15.2626 10.9195 15.7374 10.9195 16.0303 10.6266ZM17.7982 7.79815C18.091 8.09105 18.091 8.56592 17.7982 8.85881C17.5053 9.15171 17.0304 9.15171 16.7375 8.85881C16.4446 8.56592 16.4446 8.09105 16.7375 7.79815C17.0304 7.50526 17.5053 7.50526 17.7982 7.79815Z" fill="currentColor"/>
</svg>
