<svg width="24" height="24" viewBox="0 0 24 24" fill="none" xmlns="http://www.w3.org/2000/svg">
<path d="M5 3C3.89543 3 3 3.89543 3 5V10C3 12.3637 4.74893 14.2266 7 14.8094V16C7 16.3708 7.20181 16.6945 7.50158 16.8671C7.56363 19.1602 9.44196 21 11.75 21C14.0972 21 16 19.0972 16 16.75V16C16 15.1716 16.6716 14.5 17.5 14.5C18.073 14.5 18.571 14.8213 18.8236 15.2935C18.0359 15.7144 17.5 16.5446 17.5 17.5C17.5 18.8807 18.6193 20 20 20C21.3807 20 22.5 18.8807 22.5 17.5C22.5 16.4367 21.8361 15.5284 20.9003 15.167C20.5265 13.6362 19.146 12.5 17.5 12.5C15.567 12.5 14 14.067 14 16V16.75C14 17.9926 12.9926 19 11.75 19C10.5458 19 9.56251 18.054 9.50287 16.8646C9.80019 16.6912 10 16.369 10 16V14.8094C12.2511 14.2266 14 12.3637 14 10V5C14 3.89543 13.1046 3 12 3H11C10.4477 3 10 3.44772 10 4C10 4.55228 10.4477 5 11 5H12V10C12 11.5494 10.547 13 8.5 13C6.45302 13 5 11.5494 5 10V5H6C6.55228 5 7 4.55228 7 4C7 3.44772 6.55228 3 6 3H5Z" fill="currentColor"/>
</svg>
