<svg width="24" height="24" viewBox="0 0 24 24" fill="none" xmlns="http://www.w3.org/2000/svg">
<rect width="24" height="24" fill="none"/>
<mask id="path-1-inside-1_14628_25898" fill="none">
<path fill-rule="evenodd" clip-rule="evenodd" d="M12 1.5L11.9972 1.5L11.994 1.50002L11.9873 1.50008L11.9736 1.50032C11.9639 1.50055 11.9532 1.50091 11.9415 1.50146C11.9181 1.50256 11.8908 1.50438 11.8598 1.5073C11.7976 1.51312 11.7204 1.52328 11.6282 1.54057C11.4436 1.57518 11.2004 1.63811 10.8989 1.75117C10.2962 1.97717 9.46345 2.40241 8.4 3.2C7.61038 3.79221 6.32304 4.14036 5.10166 4.32356C4.51385 4.41173 3.98266 4.45607 3.59865 4.47822C3.40721 4.48927 3.25379 4.49472 3.14993 4.4974C3.09803 4.49875 3.05861 4.4994 3.03312 4.49971L3.00554 4.49997L2.9993 4.5L2 4.5V12C2 13.6558 2.67761 15.1408 3.60037 16.3968C4.52281 17.6523 5.7304 18.7353 6.9 19.6125C8.07429 20.4932 9.24268 21.1905 10.1143 21.6666C10.5513 21.9054 10.9166 22.0901 11.1746 22.216C11.3037 22.279 11.4061 22.3274 11.4774 22.3606C11.5131 22.3771 11.541 22.3899 11.5606 22.3988L11.5836 22.4092L11.5877 22.411L11.6097 22.4207C11.737 22.4747 11.8695 22.5003 12 22.5002C12.1431 22.5002 12.2837 22.4692 12.4123 22.411L12.4164 22.4092L12.4394 22.3988C12.459 22.3899 12.4869 22.3771 12.5226 22.3606C12.5939 22.3274 12.6963 22.279 12.8254 22.216C13.0834 22.0901 13.4487 21.9054 13.8857 21.6666C14.7573 21.1905 15.9257 20.4932 17.1 19.6125C18.2696 18.7353 19.4772 17.6523 20.3996 16.3968C21.3224 15.1408 22 13.6558 22 12V4.5H21L20.9945 4.49997L20.9669 4.49971C20.9414 4.4994 20.902 4.49875 20.8501 4.4974C20.7462 4.49472 20.5928 4.48927 20.4013 4.47822C20.0173 4.45607 19.4861 4.41173 18.8983 4.32356C17.677 4.14036 16.3896 3.79221 15.6 3.2C14.5365 2.40241 13.7038 1.97717 13.1011 1.75117C12.7996 1.63811 12.5564 1.57518 12.3718 1.54057C12.2796 1.52328 12.2024 1.51312 12.1402 1.5073C12.1092 1.50438 12.0819 1.50256 12.0585 1.50146C12.0468 1.50091 12.0361 1.50055 12.0264 1.50032L12.012 1.50007L12.006 1.50002L12.003 1.5L12.0015 1.5H12ZM11 7L11 11H7V13H11V17H13V13H17V11H13L13 7H11Z"/>
</mask>
<path fill-rule="evenodd" clip-rule="evenodd" d="M12 1.5L11.9972 1.5L11.994 1.50002L11.9873 1.50008L11.9736 1.50032C11.9639 1.50055 11.9532 1.50091 11.9415 1.50146C11.9181 1.50256 11.8908 1.50438 11.8598 1.5073C11.7976 1.51312 11.7204 1.52328 11.6282 1.54057C11.4436 1.57518 11.2004 1.63811 10.8989 1.75117C10.2962 1.97717 9.46345 2.40241 8.4 3.2C7.61038 3.79221 6.32304 4.14036 5.10166 4.32356C4.51385 4.41173 3.98266 4.45607 3.59865 4.47822C3.40721 4.48927 3.25379 4.49472 3.14993 4.4974C3.09803 4.49875 3.05861 4.4994 3.03312 4.49971L3.00554 4.49997L2.9993 4.5L2 4.5V12C2 13.6558 2.67761 15.1408 3.60037 16.3968C4.52281 17.6523 5.7304 18.7353 6.9 19.6125C8.07429 20.4932 9.24268 21.1905 10.1143 21.6666C10.5513 21.9054 10.9166 22.0901 11.1746 22.216C11.3037 22.279 11.4061 22.3274 11.4774 22.3606C11.5131 22.3771 11.541 22.3899 11.5606 22.3988L11.5836 22.4092L11.5877 22.411L11.6097 22.4207C11.737 22.4747 11.8695 22.5003 12 22.5002C12.1431 22.5002 12.2837 22.4692 12.4123 22.411L12.4164 22.4092L12.4394 22.3988C12.459 22.3899 12.4869 22.3771 12.5226 22.3606C12.5939 22.3274 12.6963 22.279 12.8254 22.216C13.0834 22.0901 13.4487 21.9054 13.8857 21.6666C14.7573 21.1905 15.9257 20.4932 17.1 19.6125C18.2696 18.7353 19.4772 17.6523 20.3996 16.3968C21.3224 15.1408 22 13.6558 22 12V4.5H21L20.9945 4.49997L20.9669 4.49971C20.9414 4.4994 20.902 4.49875 20.8501 4.4974C20.7462 4.49472 20.5928 4.48927 20.4013 4.47822C20.0173 4.45607 19.4861 4.41173 18.8983 4.32356C17.677 4.14036 16.3896 3.79221 15.6 3.2C14.5365 2.40241 13.7038 1.97717 13.1011 1.75117C12.7996 1.63811 12.5564 1.57518 12.3718 1.54057C12.2796 1.52328 12.2024 1.51312 12.1402 1.5073C12.1092 1.50438 12.0819 1.50256 12.0585 1.50146C12.0468 1.50091 12.0361 1.50055 12.0264 1.50032L12.012 1.50007L12.006 1.50002L12.003 1.5L12.0015 1.5H12ZM11 7L11 11H7V13H11V17H13V13H17V11H13L13 7H11Z" fill="currentColor"/>
<path d="M11.9972 1.5L11.9945 -0.500003L11.9886 -0.499978L11.9972 1.5ZM12 1.5V-0.500002L11.9973 -0.499998L12 1.5ZM11.994 1.50002L11.9853 -0.499987L11.9756 -0.499898L11.994 1.50002ZM11.9873 1.50008L11.9689 -0.499836L11.9604 -0.499758L11.9519 -0.499608L11.9873 1.50008ZM11.9736 1.50032L11.9383 -0.4994L11.9268 -0.49913L11.9736 1.50032ZM11.9415 1.50146L12.0351 3.49927L12.0351 3.49927L11.9415 1.50146ZM11.8598 1.5073L12.0465 3.49856L12.0465 3.49856L11.8598 1.5073ZM11.6282 1.54057L11.2596 -0.425179L11.2596 -0.425179L11.6282 1.54057ZM10.8989 1.75117L11.6011 3.62383V3.62383L10.8989 1.75117ZM8.4 3.2L9.6 4.8L9.6 4.8L8.4 3.2ZM5.10166 4.32356L5.39834 6.30144H5.39834L5.10166 4.32356ZM3.59865 4.47822L3.71385 6.4749H3.71385L3.59865 4.47822ZM3.14993 4.4974L3.09822 2.49807L3.09822 2.49807L3.14993 4.4974ZM3.03312 4.49971L3.05219 6.49963L3.05771 6.49956L3.03312 4.49971ZM3.00554 4.49997L3.01449 6.49998L3.02461 6.49988L3.00554 4.49997ZM2.9993 4.5L2.9993 6.50002L3.00825 6.49998L2.9993 4.5ZM2 4.5L2 2.5L0 2.5V4.5H2ZM3.60037 16.3968L5.21213 15.2126L5.21213 15.2126L3.60037 16.3968ZM6.9 19.6125L8.1 18.0125L8.1 18.0125L6.9 19.6125ZM10.1143 21.6666L11.0732 19.9115H11.0732L10.1143 21.6666ZM11.1746 22.216L10.2974 24.0134L10.2974 24.0134L11.1746 22.216ZM11.4774 22.3606L12.3205 20.5469L12.3204 20.5469L11.4774 22.3606ZM11.5606 22.3988L10.7334 24.2197L10.7367 24.2212L11.5606 22.3988ZM11.5836 22.4092L10.7598 24.2317L10.7654 24.2342L11.5836 22.4092ZM11.5877 22.411L10.7694 24.236L10.7775 24.2396L10.7856 24.2432L11.5877 22.411ZM11.6097 22.4207L10.8076 24.2528L10.8179 24.2573L10.8283 24.2617L11.6097 22.4207ZM12 22.5002L12.0011 24.5002H12.0011L12 22.5002ZM12.4123 22.411L11.594 20.5861L11.5883 20.5887L12.4123 22.411ZM12.4164 22.4092L13.2346 24.2342L13.2402 24.2317L12.4164 22.4092ZM12.4394 22.3988L13.2633 24.2212L13.2666 24.2197L12.4394 22.3988ZM12.5226 22.3606L11.6796 20.5469L11.6795 20.5469L12.5226 22.3606ZM12.8254 22.216L13.7026 24.0134L13.7026 24.0134L12.8254 22.216ZM13.8857 21.6666L12.9268 19.9115H12.9268L13.8857 21.6666ZM17.1 19.6125L15.9 18.0125L15.9 18.0125L17.1 19.6125ZM20.3996 16.3968L18.7879 15.2126V15.2126L20.3996 16.3968ZM22 4.5H24V2.5H22V4.5ZM21 4.5L20.99 6.5H21V4.5ZM20.9945 4.49997L20.9754 6.4999L20.9845 6.49995L20.9945 4.49997ZM20.9669 4.49971L20.9423 6.49957L20.9478 6.49962L20.9669 4.49971ZM20.8501 4.4974L20.9018 2.49807L20.9018 2.49807L20.8501 4.4974ZM20.4013 4.47822L20.2862 6.4749H20.2862L20.4013 4.47822ZM18.8983 4.32356L18.6017 6.30144L18.8983 4.32356ZM15.6 3.2L14.4 4.8L14.4 4.8L15.6 3.2ZM13.1011 1.75117L12.3989 3.62383V3.62383L13.1011 1.75117ZM12.3718 1.54057L12.7404 -0.425179L12.7404 -0.425179L12.3718 1.54057ZM12.1402 1.5073L11.9535 3.49856L11.9535 3.49856L12.1402 1.5073ZM12.0585 1.50146L11.9649 3.49927L11.9649 3.49927L12.0585 1.50146ZM12.0264 1.50032L12.0732 -0.499167L12.0611 -0.499378L12.0264 1.50032ZM12.012 1.50007L12.0467 -0.499628L12.0382 -0.499777L12.0296 -0.499852L12.012 1.50007ZM12.006 1.50002L12.0237 -0.499924L12.0149 -0.499963L12.006 1.50002ZM12.003 1.5L12.0118 -0.499979L12.0087 -0.499987L12.003 1.5ZM12.0015 1.5L12.0072 -0.5H12.0015V1.5ZM11 11V13H13V11H11ZM11 7V5H9L9 7L11 7ZM7 11V9H5V11H7ZM7 13H5V15H7V13ZM11 13H13V11H11V13ZM11 17H9V19H11V17ZM13 17V19H15V17H13ZM13 13V11H11V13H13ZM17 13V15H19V13H17ZM17 11H19V9H17V11ZM13 11H11L11 13H13V11ZM13 7L15 7L15 5H13V7ZM11.9999 3.5L12.0027 3.5L11.9973 -0.499998L11.9945 -0.499994L11.9999 3.5ZM12.0026 3.5L12.0059 3.49999L11.9886 -0.499978L11.9853 -0.499964L12.0026 3.5ZM12.0057 3.49999L12.0124 3.49993L11.9756 -0.499898L11.9689 -0.499836L12.0057 3.49999ZM12.009 3.50001L12.0226 3.49977L11.9519 -0.499608L11.9383 -0.499367L12.009 3.50001ZM12.0351 3.49927C12.0312 3.49945 12.0264 3.49963 12.0205 3.49977L11.9268 -0.49913C11.9014 -0.498536 11.8751 -0.497622 11.8478 -0.496343L12.0351 3.49927ZM12.0465 3.49856C12.0467 3.49855 12.0429 3.49891 12.0351 3.49927L11.8478 -0.496343C11.7933 -0.493786 11.735 -0.489777 11.6731 -0.483973L12.0465 3.49856ZM11.9968 3.50631C12.0296 3.50016 12.0461 3.4986 12.0465 3.49856L11.6731 -0.483973C11.5492 -0.472356 11.4113 -0.453612 11.2596 -0.425179L11.9968 3.50631ZM11.6011 3.62383C11.7996 3.54939 11.9314 3.51857 11.9968 3.50631L11.2596 -0.425179C10.9559 -0.36822 10.6011 -0.273159 10.1966 -0.121487L11.6011 3.62383ZM9.6 4.8C10.5366 4.09758 11.2038 3.77283 11.6011 3.62383L10.1966 -0.121488C9.38866 0.181502 8.39035 0.707237 7.2 1.6L9.6 4.8ZM5.39834 6.30144C6.67534 6.10989 8.38897 5.70827 9.6 4.8L7.2 1.6C6.8318 1.87615 5.97074 2.17083 4.80498 2.34569L5.39834 6.30144ZM3.71385 6.4749C4.14233 6.45018 4.73614 6.40077 5.39834 6.30144L4.80498 2.34569C4.29156 2.4227 3.82299 2.46195 3.48346 2.48154L3.71385 6.4749ZM3.20163 6.49674C3.32433 6.49356 3.49904 6.4873 3.71385 6.4749L3.48346 2.48154C3.31538 2.49124 3.18326 2.49587 3.09822 2.49807L3.20163 6.49674ZM3.05771 6.49956C3.09178 6.49914 3.14025 6.49832 3.20164 6.49674L3.09822 2.49807C3.05581 2.49917 3.02545 2.49965 3.00852 2.49986L3.05771 6.49956ZM3.02461 6.49988L3.05219 6.49962L3.01405 2.4998L2.98647 2.50006L3.02461 6.49988ZM3.00825 6.49998L3.01449 6.49995L2.99659 2.49999L2.99035 2.50002L3.00825 6.49998ZM2 6.5H2.9993L2.9993 2.5L2 2.5L2 6.5ZM4 12V4.5H0V12H4ZM5.21213 15.2126C4.44706 14.1713 4 13.0938 4 12H0C0 14.2177 0.908165 16.1103 1.98861 17.5809L5.21213 15.2126ZM8.1 18.0125C7.01965 17.2022 5.97722 16.254 5.21213 15.2126L1.9886 17.5809C3.0684 19.0506 4.44114 20.2684 5.7 21.2125L8.1 18.0125ZM11.0732 19.9115C10.2573 19.4658 9.17572 18.8193 8.1 18.0125L5.7 21.2125C6.97285 22.1671 8.22803 22.9152 9.15549 23.4218L11.0732 19.9115ZM12.0519 20.4187C11.8177 20.3044 11.4799 20.1337 11.0732 19.9115L9.15549 23.4218C9.62274 23.6771 10.0156 23.8758 10.2974 24.0134L12.0519 20.4187ZM12.3204 20.5469C12.2599 20.5188 12.1689 20.4758 12.0519 20.4187L10.2974 24.0134C10.4385 24.0823 10.5523 24.1361 10.6344 24.1742L12.3204 20.5469ZM12.3878 20.5779C12.3733 20.5713 12.3507 20.561 12.3205 20.5469L10.6344 24.1742C10.6755 24.1933 10.7087 24.2085 10.7334 24.2197L12.3878 20.5779ZM12.4075 20.5868L12.3844 20.5764L10.7367 24.2212L10.7598 24.2317L12.4075 20.5868ZM12.406 20.5861L12.4019 20.5843L10.7654 24.2342L10.7694 24.236L12.406 20.5861ZM12.4117 20.5885L12.3897 20.5789L10.7856 24.2432L10.8076 24.2528L12.4117 20.5885ZM11.9989 20.5002C12.1321 20.5002 12.2662 20.5266 12.391 20.5796L10.8283 24.2617C11.2079 24.4228 11.6069 24.5005 12.0011 24.5002L11.9989 20.5002ZM11.5883 20.5887C11.7149 20.5315 11.8545 20.5003 11.9989 20.5002L12.0011 24.5002C12.4317 24.5 12.8525 24.407 13.2363 24.2334L11.5883 20.5887ZM11.5981 20.5843L11.594 20.5861L13.2306 24.236L13.2346 24.2342L11.5981 20.5843ZM11.6156 20.5764L11.5925 20.5868L13.2402 24.2317L13.2633 24.2212L11.6156 20.5764ZM11.6795 20.5469C11.6493 20.561 11.6267 20.5713 11.6122 20.5779L13.2666 24.2197C13.2913 24.2085 13.3245 24.1933 13.3656 24.1742L11.6795 20.5469ZM11.9481 20.4187C11.8311 20.4758 11.7401 20.5188 11.6796 20.5469L13.3656 24.1742C13.4477 24.1361 13.5615 24.0823 13.7026 24.0134L11.9481 20.4187ZM12.9268 19.9115C12.5201 20.1337 12.1823 20.3044 11.9481 20.4187L13.7026 24.0134C13.9844 23.8758 14.3773 23.6771 14.8445 23.4218L12.9268 19.9115ZM15.9 18.0125C14.8243 18.8193 13.7427 19.4658 12.9268 19.9115L14.8445 23.4218C15.772 22.9152 17.0271 22.1671 18.3 21.2125L15.9 18.0125ZM18.7879 15.2126C18.0228 16.254 16.9803 17.2022 15.9 18.0125L18.3 21.2125C19.5589 20.2684 20.9316 19.0506 22.0114 17.5809L18.7879 15.2126ZM20 12C20 13.0938 19.5529 14.1713 18.7879 15.2126L22.0114 17.5809C23.0918 16.1103 24 14.2177 24 12H20ZM20 4.5V12H24V4.5H20ZM21 6.5H22V2.5H21V6.5ZM20.9845 6.49995L20.99 6.49998L21.01 2.50002L21.0045 2.5L20.9845 6.49995ZM20.9478 6.49962L20.9754 6.49988L21.0135 2.50006L20.986 2.4998L20.9478 6.49962ZM20.7984 6.49674C20.8598 6.49832 20.9082 6.49914 20.9423 6.49956L20.9915 2.49986C20.9746 2.49965 20.9442 2.49917 20.9018 2.49807L20.7984 6.49674ZM20.2862 6.4749C20.501 6.4873 20.6757 6.49356 20.7984 6.49674L20.9018 2.49807C20.8167 2.49587 20.6846 2.49124 20.5165 2.48154L20.2862 6.4749ZM18.6017 6.30144C19.2639 6.40077 19.8577 6.45018 20.2862 6.4749L20.5165 2.48154C20.177 2.46195 19.7084 2.4227 19.195 2.34569L18.6017 6.30144ZM14.4 4.8C15.611 5.70827 17.3247 6.10989 18.6017 6.30144L19.195 2.34569C18.0293 2.17083 17.1682 1.87615 16.8 1.6L14.4 4.8ZM12.3989 3.62383C12.7962 3.77283 13.4634 4.09758 14.4 4.8L16.8 1.6C15.6096 0.707237 14.6113 0.181501 13.8034 -0.121488L12.3989 3.62383ZM12.0032 3.50631C12.0686 3.51857 12.2004 3.54939 12.3989 3.62383L13.8034 -0.121487C13.3989 -0.273159 13.0441 -0.36822 12.7404 -0.425179L12.0032 3.50631ZM11.9535 3.49856C11.9539 3.4986 11.9704 3.50016 12.0032 3.50631L12.7404 -0.425179C12.5887 -0.453612 12.4508 -0.472356 12.3269 -0.483973L11.9535 3.49856ZM11.9649 3.49927C11.9571 3.49891 11.9533 3.49855 11.9535 3.49856L12.3269 -0.483973C12.265 -0.489777 12.2067 -0.493786 12.1522 -0.496343L11.9649 3.49927ZM11.9795 3.49977C11.9736 3.49963 11.9688 3.49945 11.9649 3.49927L12.1522 -0.496343C12.1249 -0.497622 12.0986 -0.498536 12.0732 -0.49913L11.9795 3.49977ZM11.9772 3.49977L11.9916 3.50002L12.0611 -0.499378L12.0467 -0.499628L11.9772 3.49977ZM11.9884 3.49994L11.9943 3.49999L12.0296 -0.499852L12.0237 -0.499904L11.9884 3.49994ZM11.9942 3.49998L11.9972 3.5L12.0149 -0.499963L12.0118 -0.499976L11.9942 3.49998ZM11.9957 3.49999L11.9973 3.5L12.0087 -0.499987L12.0072 -0.499992L11.9957 3.49999ZM12 3.5H12.0015V-0.5H12V3.5ZM13 11L13 7L9 7L9 11H13ZM7 13H11V9H7V13ZM9 13V11H5V13H9ZM11 11H7V15H11V11ZM13 17V13H9V17H13ZM13 15H11V19H13V15ZM11 13V17H15V13H11ZM17 11H13V15H17V11ZM15 11V13H19V11H15ZM13 13H17V9H13V13ZM11 7L11 11H15L15 7L11 7ZM11 9H13V5H11V9Z" fill="currentColor" mask="url(#path-1-inside-1_14628_25898)"/>
</svg>
