<svg width="24" height="24" viewBox="0 0 24 24" fill="none" xmlns="http://www.w3.org/2000/svg">
<path fill-rule="evenodd" clip-rule="evenodd" d="M8 2C6.89543 2 6 2.89543 6 4V17C6 18.1046 6.89543 19 8 19H19C20.1046 19 21 18.1046 21 17V8.36205C21 7.89418 20.836 7.44111 20.5364 7.08168L18.2531 4.34168L16.7011 2.64855C16.3223 2.23529 15.7874 2 15.2268 2H8ZM18.6983 8L16.7469 5.65832L15.5 4.29807V7C15.5 7.55228 15.9477 8 16.5 8H18.6983ZM16.414 10.9785L12.0835 15.4441L9.58625 12.8155L11.0362 11.438L12.0983 12.5559L14.9783 9.58613L16.414 10.9785Z" fill="currentColor"/>
<path d="M5 5.5H3V17.5C3 18.9013 3.66222 20.0351 4.52475 20.7985C5.36987 21.5464 6.47412 22 7.5 22H17.5V20H7.5C7.02588 20 6.38013 19.7697 5.85025 19.3008C5.33778 18.8472 5 18.231 5 17.5V5.5Z" fill="currentColor"/>
</svg>
