<svg width="24" height="24" viewBox="0 0 24 24" fill="none" xmlns="http://www.w3.org/2000/svg">
<path d="M13 15.4375C13 15.6325 12.9007 15.8044 12.75 15.9053V14.9697C12.9007 15.0706 13 15.2425 13 15.4375Z" fill="currentColor"/>
<path d="M11 12.8125C11 12.6175 11.0993 12.4456 11.25 12.3447V13.2803C11.0993 13.1794 11 13.0075 11 12.8125Z" fill="currentColor"/>
<path fill-rule="evenodd" clip-rule="evenodd" d="M7.34564 8.08067C3.33732 12.7442 0.868891 20.9986 12.3556 20.9986C13.9459 20.9986 15.2672 20.8374 16.3529 20.5477L14.3018 18.7091L16.6069 16.1375V14.001H19.9227C19.9484 14.0003 19.9742 14 20 14C20.0258 14 20.0516 14.0003 20.0773 14.001H20.1066C20.24 14.0056 20.3712 14.0199 20.4996 14.0414C20.0513 11.9224 18.7678 9.71356 17.2904 8.03986C14.2371 8.9729 10.4212 8.98651 7.34564 8.08067ZM11.25 18V17.4765C10.4897 17.361 9.86692 16.8305 9.61755 16.1249C9.47952 15.7344 9.68421 15.3059 10.0747 15.1679C10.4653 15.0298 10.8938 15.2345 11.0318 15.6251C11.0727 15.7407 11.1502 15.8386 11.25 15.9053V14.8515C10.2592 14.7009 9.5 13.8454 9.5 12.8125C9.5 11.7796 10.2592 10.9241 11.25 10.7735V10.25H12.75V10.7735C13.5103 10.889 14.1331 11.4195 14.3824 12.1251C14.5205 12.5156 14.3158 12.9441 13.9253 13.0821C13.5347 13.2202 13.1062 13.0155 12.9682 12.6249C12.9273 12.5093 12.8498 12.4114 12.75 12.3447V13.3985C13.7408 13.5491 14.5 14.4046 14.5 15.4375C14.5 16.4704 13.7408 17.3259 12.75 17.4765V18H11.25Z" fill="currentColor"/>
<path d="M16.7149 17.5153L15.7139 18.6319L18.3567 21.001L20.9996 18.6319L19.9986 17.5153L19.1066 18.3149V15.001H17.6069L17.6069 18.3149L16.7149 17.5153Z" fill="currentColor"/>
<path fill-rule="evenodd" clip-rule="evenodd" d="M7.38072 6.77942C10.333 7.78516 14.2716 7.77535 17.2046 6.75L17.247 6.83067L18.6361 4.8C17.7361 4.2 15.22 3 12.3556 3C9.49115 3 6.94908 4.2 6.03609 4.8L7.38072 6.77942ZM16.5 4.9465C15.4524 4.9109 13.9286 5.00968 12.5124 5.16974C12.2294 5.20172 11.9335 5.2566 11.6319 5.31255C10.5497 5.51328 9.39376 5.72768 8.5 4.9465C9.07162 4.79973 10.649 4.50824 12.4367 4.50017L12.5124 4.5C14.331 4.5 15.9286 4.79766 16.5 4.9465Z" fill="currentColor"/>
</svg>
