<svg width="24" height="24" viewBox="0 0 24 24" fill="none" xmlns="http://www.w3.org/2000/svg">
<path d="M5.98957 8.97079C5.98957 8.22582 6.36189 7.48084 6.92072 6.92142L6.92691 6.91525C7.48711 6.3572 8.23313 5.9854 8.97914 5.9854C8.23313 5.9854 7.48711 5.61359 6.92691 5.05555L6.92072 5.04937C6.36189 4.48995 5.98957 3.74498 5.98957 3C5.98957 3.74498 5.61725 4.48995 5.05842 5.04937L5.05224 5.05555C4.49204 5.61359 3.74602 5.9854 3 5.9854C3.74602 5.9854 4.49204 6.3572 5.05224 6.91525L5.05842 6.92142C5.61725 7.48084 5.98957 8.22582 5.98957 8.97079Z" fill="currentColor"/>
<path d="M14.46 8.97079C14.46 8.22582 14.8323 7.48084 15.3912 6.92142L15.3974 6.91525C15.9576 6.3572 16.7036 5.9854 17.4496 5.9854C16.7036 5.9854 15.9576 5.61359 15.3974 5.05555L15.3912 5.04937C14.8323 4.48995 14.46 3.74498 14.46 3C14.46 3.74498 14.0877 4.48995 13.5289 5.04937L13.5227 5.05555C12.9625 5.61359 12.2165 5.9854 11.4705 5.9854C12.2165 5.9854 12.9625 6.3572 13.5227 6.91525L13.5289 6.92142C14.0877 7.48084 14.46 8.22582 14.46 8.97079Z" fill="currentColor"/>
<path d="M6.92072 15.8776C6.36189 16.437 5.98957 17.182 5.98957 17.927C5.98957 17.182 5.61725 16.437 5.05842 15.8776L5.05224 15.8714C4.49204 15.3134 3.74602 14.9416 3 14.9416C3.74602 14.9416 4.49204 14.5698 5.05224 14.0117L5.05842 14.0056C5.61725 13.4461 5.98957 12.7012 5.98957 11.9562C5.98957 12.7012 6.36189 13.4461 6.92072 14.0056L6.92691 14.0117C7.48711 14.5698 8.23313 14.9416 8.97914 14.9416C8.23313 14.9416 7.48711 15.3134 6.92691 15.8714L6.92072 15.8776Z" fill="currentColor"/>
<path fill-rule="evenodd" clip-rule="evenodd" d="M8.30459 10.0815C7.81813 10.5673 7.81813 11.3549 8.30459 11.8406L17.1119 20.6357C17.5984 21.1214 18.3871 21.1214 18.8735 20.6357L20.6352 18.8765C21.1216 18.3907 21.1216 17.6031 20.6352 17.1173L11.8278 8.32232C11.3414 7.83654 10.5527 7.83654 10.0662 8.32232L8.30459 10.0815ZM12.751 11.3552L11.3417 12.7625L9.53772 10.9611L10.947 9.55373L12.751 11.3552Z" fill="currentColor"/>
</svg>
