<svg width="24" height="24" viewBox="0 0 24 24" fill="none" xmlns="http://www.w3.org/2000/svg">
<path fill-rule="evenodd" clip-rule="evenodd" d="M17.63 3H10.3103L9.19386 10.3151C9.06479 10.8089 9.00105 11.2033 9.00674 11.5798C9.01258 11.9667 9.09134 12.3041 9.20642 12.6757L11.1762 18.6014L8.38586 19.9444H6.99993C6.84227 19.9444 6.69385 20.0188 6.59945 20.1451C6.50506 20.2714 6.47585 20.4351 6.52048 20.5863C6.52048 20.5863 6.54216 20.653 6.5208 20.5874L6.52134 20.5892L6.5228 20.594L6.5272 20.6081C6.53081 20.6194 6.53578 20.6345 6.54215 20.653C6.55486 20.6898 6.57334 20.7403 6.59792 20.7999C6.64646 20.9177 6.72187 21.0787 6.82839 21.2436C7.02633 21.5499 7.42024 22 8.05256 22H9.68414C9.85104 22 10.0716 21.9487 10.2559 21.9026C10.3772 21.8723 10.5184 21.8346 10.6644 21.7955C10.7585 21.7704 10.8554 21.7445 10.9495 21.7199C11.4636 21.5855 11.9664 21.4722 12.3157 21.4722C12.3584 21.4722 12.4649 21.4921 12.6574 21.5565C12.7914 21.6013 12.9325 21.6551 13.0853 21.7134C13.14 21.7343 13.1962 21.7558 13.254 21.7775C13.4609 21.8554 13.6914 21.9386 13.9004 21.9872C14.0056 22.0117 14.123 22.0318 14.2409 22.0336C14.3546 22.0353 14.5096 22.0208 14.6595 21.9394C14.9589 21.7769 15.1622 21.5072 15.2888 21.2558C15.4165 21.0022 15.4926 20.7158 15.4997 20.4584C15.5065 20.2146 15.4153 20.0033 15.3225 19.8444C15.2282 19.6829 15.1042 19.5289 14.987 19.3923C14.914 19.3072 14.8428 19.2274 14.774 19.1503C14.6374 18.997 14.5106 18.8548 14.3987 18.7044C14.4083 17.9901 14.4823 17.417 14.554 16.8621C14.5844 16.6267 14.6143 16.3945 14.6388 16.1563C14.7246 15.32 14.7264 14.4913 14.3721 13.4256C14.2122 12.9445 13.9313 12.3847 13.7019 11.9616C13.6052 11.7831 13.515 11.6242 13.4425 11.4991C14.7866 9.63592 15.6241 8.40911 16.2046 7.30116C16.8205 6.12556 17.141 5.09602 17.4869 3.61362L17.63 3ZM12.6041 5.42844C12.5245 5.48417 12.4466 5.5508 12.3719 5.6301C12.0521 5.9695 11.9302 6.39151 11.9188 6.75666C11.9079 7.10323 11.9951 7.48226 12.2031 7.73775C12.3775 7.9519 12.6924 7.98416 12.9065 7.80981C13.1207 7.63547 13.153 7.32053 12.9786 7.10639C12.9759 7.10204 12.9591 7.0748 12.9433 7.01718C12.9263 6.95493 12.9156 6.87548 12.9183 6.78802C12.9239 6.61083 12.9822 6.44061 13.0998 6.3158C13.2033 6.20584 13.3253 6.16909 13.4641 6.16768C13.6142 6.16614 13.7504 6.20698 13.8402 6.23433C14.1044 6.31471 14.3837 6.16571 14.4641 5.90153C14.5445 5.63735 14.3955 5.35802 14.1313 5.27763L14.1149 5.27253C14.0473 5.25145 13.8842 5.20054 13.6724 5.17831L13.6734 5.15406C13.6813 4.92547 13.6383 4.61449 13.4055 4.36091C13.1681 4.10219 12.8228 4 12.4376 4C12.1614 4 11.9376 4.22386 11.9376 4.5C11.9376 4.77614 12.1614 5 12.4376 5C12.5865 5 12.648 5.02584 12.6667 5.03666C12.6701 5.04657 12.6757 5.07106 12.674 5.11965C12.671 5.20733 12.645 5.31252 12.6112 5.40873L12.6041 5.42844ZM12.3244 10.1302L12.3221 10.1327L12.3121 10.1431C12.303 10.1525 12.2895 10.1668 12.2727 10.1849C12.2388 10.2214 12.1923 10.2725 12.142 10.3311C12.0333 10.4577 11.9363 10.5852 11.8922 10.6686C11.8455 10.7568 11.8019 10.8561 11.7739 10.9357C11.7654 10.9599 11.7596 10.9786 11.7559 10.992C11.7612 11.2179 11.6119 11.4264 11.3838 11.4868C11.1169 11.5574 10.8432 11.3983 10.7726 11.1313C10.7348 10.9887 10.7622 10.8551 10.7715 10.81C10.7859 10.74 10.8078 10.6686 10.8305 10.604C10.8765 10.4733 10.9407 10.3286 11.0083 10.2009C11.1086 10.0112 11.2699 9.81175 11.3834 9.67964C11.4441 9.60888 11.4997 9.54777 11.5401 9.50427C11.5604 9.48243 11.5771 9.46482 11.5889 9.45239L11.603 9.4377L11.6071 9.43347L11.6084 9.43217L11.9668 9.78084L11.6091 9.43143C11.8021 9.2339 12.1186 9.23021 12.3162 9.42318C12.5136 9.61609 12.5172 9.9327 12.3244 10.1302ZM11.1756 13.5014C10.9828 13.3039 10.9865 12.9873 11.1839 12.7944C11.3815 12.6014 11.698 12.6051 11.891 12.8026L11.8917 12.8034L11.893 12.8047L11.8971 12.8089L11.9112 12.8236C11.9231 12.836 11.9397 12.8537 11.96 12.8755C12.0004 12.919 12.056 12.9801 12.1167 13.0509C12.2302 13.183 12.3915 13.3825 12.4918 13.5721C12.5594 13.6999 12.6236 13.8446 12.6696 13.9752C12.6923 14.0399 12.7142 14.1112 12.7286 14.1812C12.7379 14.2263 12.7653 14.3599 12.7276 14.5025C12.6569 14.7695 12.3832 14.9286 12.1163 14.858C11.8882 14.7976 11.7389 14.5891 11.7442 14.3632C11.7405 14.3498 11.7347 14.3311 11.7262 14.3069C11.6982 14.2274 11.6546 14.128 11.6079 14.0398C11.5638 13.9564 11.4668 13.8289 11.3581 13.7023C11.3078 13.6438 11.2613 13.5926 11.2274 13.5562C11.2106 13.538 11.1971 13.5238 11.188 13.5143L11.178 13.5039L11.1756 13.5014Z" fill="currentColor"/>
</svg>
