<svg width="24" height="24" viewBox="0 0 24 24" fill="none" xmlns="http://www.w3.org/2000/svg">
<path d="M16.0378 5.0964C16.1159 4.86707 16.2073 4.63431 16.312 4.39811C16.448 4.09121 16.6363 3.71554 16.8768 3.27111C15.431 2.46156 13.7635 2 11.9881 2C6.6923 2 2.35682 6.10691 2 11.306C2.49676 10.5821 3.30305 10.0868 4.22832 10.0103C5.11386 6.55463 8.25231 4 11.9881 4C13.4656 4 14.8496 4.39956 16.0378 5.0964Z" fill="currentColor"/>
<path d="M17.0134 9.96593C16.8926 9.86257 16.7758 9.7483 16.663 9.62311C16.4187 9.35194 16.2205 9.06007 16.0684 8.7475C15.8245 8.83445 15.5738 8.85925 15.3266 8.7931C15.0275 8.71304 14.7905 8.51501 14.6061 8.25248C14.4174 7.98373 14.3183 7.69373 14.2881 7.53961L12.8143 7.82758C12.8813 8.16974 13.057 8.65868 13.3766 9.11381C13.7006 9.57517 14.2055 10.046 14.9379 10.242C15.6703 10.438 16.3433 10.2824 16.8548 10.0447C16.9089 10.0195 16.9618 9.9932 17.0134 9.96593Z" fill="currentColor"/>
<path d="M2.52734 15.2802C3.88663 19.1919 7.60906 22 11.9881 22C17.5175 22 22 17.5228 22 12C22 11.0503 21.8675 10.1316 21.6199 9.26122C21.5317 9.38569 21.4351 9.50632 21.3298 9.62311C20.9011 10.0989 20.415 10.4171 19.8714 10.5776C19.9543 11.0392 19.9976 11.5146 19.9976 12C19.9976 16.4183 16.4117 20 11.9881 20C9.00333 20 6.39987 18.3693 5.02209 15.9511C4.84602 15.9832 4.66459 16 4.47923 16C3.73408 16 3.05231 15.729 2.52734 15.2802Z" fill="currentColor"/>
<path d="M9.37155 8.25248C9.56027 7.98373 9.65932 7.69373 9.68951 7.53961L11.1634 7.82758C11.0963 8.16974 10.9207 8.65868 10.6011 9.11381C10.2771 9.57517 9.77216 10.046 9.03975 10.242C8.30734 10.438 7.63439 10.2824 7.12288 10.0447C6.61825 9.81014 6.22134 9.47444 5.99203 9.21159L7.12426 8.22615C7.22755 8.34455 7.45851 8.54623 7.75648 8.68472C8.04756 8.82001 8.35193 8.87315 8.65107 8.7931C8.9502 8.71304 9.18719 8.51501 9.37155 8.25248Z" fill="currentColor"/>
<path d="M18.9964 9C18.4458 9 17.9744 8.80417 17.5823 8.4125C17.1901 8.02083 16.9941 7.55 16.9941 7C16.9941 6.55 17.1192 6.07083 17.3695 5.5625C17.6198 5.05417 18.1621 4.2 18.9964 3C19.8308 4.2 20.3731 5.05417 20.6234 5.5625C20.8737 6.07083 20.9988 6.55 20.9988 7C20.9988 7.55 20.8027 8.02083 20.4106 8.4125C20.0185 8.80417 19.5471 9 18.9964 9Z" fill="currentColor"/>
<path d="M5.48201 14.7315C5.18713 14.9023 4.84461 15 4.47923 15C3.37335 15 2.47685 14.1046 2.47685 13C2.47685 11.8954 3.37335 11 4.47923 11C5.57957 11 6.47262 11.8865 6.48153 12.9834L11.3813 15.0809C11.8896 15.2984 12.125 15.8863 11.9072 16.3939C11.6894 16.9016 11.1008 17.1367 10.5926 16.9191L5.48201 14.7315Z" fill="currentColor"/>
<path d="M7.68302 17.2002C7.68302 15.2693 7.98337 14.5 8.98455 13.5C9.98574 12.5 11.2588 12.2002 11.9881 12.2002C12.7175 12.2002 13.9905 12.5 14.9917 13.5C15.9929 14.5 16.2932 15.3064 16.2932 17.2002H7.68302Z" fill="currentColor"/>
</svg>
