<svg width="24" height="24" viewBox="0 0 24 24" fill="none" xmlns="http://www.w3.org/2000/svg">
<path d="M7.99972 5.07176C11.8261 2.86262 16.7188 4.17362 18.9279 7.99996C19.5203 9.02603 19.8596 10.1288 19.9651 11.2359C20.6991 12.4526 21.1986 13.3603 21.4637 13.9592C21.5456 14.1441 21.6178 14.3265 21.6805 14.5065C22.315 12.0562 22.0255 9.36511 20.66 6.99996C17.8985 2.21703 11.7826 0.578283 6.99972 3.33971C2.641 5.85621 0.89346 11.1586 2.70768 15.6992C2.97659 15.123 3.43736 14.2941 4.08996 13.2124C3.60576 10.0485 5.06078 6.76855 7.99972 5.07176Z" fill="currentColor"/>
<path d="M16.9997 20.6602C13.615 22.6144 9.56275 22.365 6.50415 20.3571C6.58589 20.2839 6.66536 20.2044 6.74255 20.1186C7.13686 19.6805 7.38414 19.1763 7.4844 18.6061C9.94445 20.285 13.2479 20.5169 15.9997 18.9282C16.377 18.7103 16.7299 18.4664 17.0573 18.1999C17.1071 18.264 17.1598 18.3269 17.2152 18.3884C17.6821 18.9072 18.2294 19.2049 18.8571 19.2815C18.3049 19.8007 17.6845 20.2648 16.9997 20.6602Z" fill="currentColor"/>
<path d="M18.0128 14.1542C18.2921 13.6774 18.6846 13.0615 19.1901 12.3066C19.6956 13.0615 20.0881 13.6774 20.3674 14.1542C20.5252 14.4234 20.6468 14.6483 20.7325 14.8289C20.9698 15.3293 21.0884 15.8009 21.0884 16.2438C21.0884 16.7852 20.9025 17.2486 20.5308 17.6342C20.159 18.0197 19.7121 18.2124 19.1901 18.2124C18.6681 18.2124 18.2212 18.0197 17.8494 17.6342C17.4777 17.2486 17.2918 16.7852 17.2918 16.2438C17.2918 15.8009 17.4105 15.3293 17.6477 14.8289C17.7334 14.6483 17.855 14.4234 18.0128 14.1542Z" fill="currentColor"/>
<path d="M3.49422 15.9418C3.77358 15.465 4.16602 14.8491 4.67155 14.0942C5.17708 14.8491 5.56952 15.465 5.84888 15.9418C6.00661 16.211 6.12828 16.4359 6.21391 16.6165C6.4512 17.1168 6.56984 17.5885 6.56984 18.0314C6.56984 18.5728 6.38397 19.0362 6.01222 19.4218C5.64047 19.8073 5.19358 20 4.67155 20C4.14952 20 3.70263 19.8073 3.33088 19.4218C2.95913 19.0362 2.77325 18.5728 2.77325 18.0314C2.77325 17.5885 2.8919 17.1168 3.12918 16.6165C3.21481 16.4359 3.33649 16.211 3.49422 15.9418Z" fill="currentColor"/>
<path d="M9.47494 8.56881C9.66344 8.30006 9.76237 8.01007 9.79252 7.85594L11.2646 8.14391C11.1977 8.48607 11.0222 8.97501 10.703 9.43015C10.3794 9.8915 9.87508 10.3623 9.14354 10.5583C8.412 10.7543 7.73984 10.5988 7.22893 10.361C6.72491 10.1265 6.32847 9.79077 6.09942 9.52792L7.23031 8.54248C7.33349 8.66088 7.56417 8.86256 7.86178 9.00105C8.15252 9.13634 8.45653 9.18949 8.75531 9.10943C9.05409 9.02937 9.2908 8.83134 9.47494 8.56881Z" fill="currentColor"/>
<path d="M13.4752 9.43015C13.156 8.97501 12.9805 8.48607 12.9136 8.14391L14.3857 7.85594C14.4159 8.01007 14.5148 8.30006 14.7033 8.56881C14.8874 8.83134 15.1241 9.02937 15.4229 9.10943C15.7217 9.18949 16.0257 9.13634 16.3165 9.00105C16.6141 8.86256 16.8447 8.66088 16.9479 8.54248L18.0788 9.52792C17.8498 9.79077 17.4533 10.1265 16.9493 10.361C16.4384 10.5988 15.7662 10.7543 15.0347 10.5583C14.3032 10.3623 13.7988 9.8915 13.4752 9.43015Z" fill="currentColor"/>
<path d="M7.83545 16V16.6715H16.3416V16C16.3416 14.872 15.8935 13.7902 15.0959 12.9926C14.2983 12.195 13.2165 11.7469 12.0885 11.7469C10.9605 11.7469 9.87875 12.195 9.08115 12.9926C8.28354 13.7902 7.83545 14.872 7.83545 16Z" fill="currentColor"/>
</svg>
