<svg width="24" height="24" viewBox="0 0 24 24" fill="none" xmlns="http://www.w3.org/2000/svg">
<path fill-rule="evenodd" clip-rule="evenodd" d="M15.8181 3.84827L16.8195 2.84692L21.1346 7.16198L20.1128 8.1838C20.5454 8.29391 20.8654 8.68607 20.8654 9.15295C20.8654 9.70524 20.4176 10.153 19.8654 10.153C19.3985 10.153 19.0063 9.83298 18.8962 9.40035L16.7534 11.5431C15.7759 12.5205 14.3002 12.6962 13.1437 12.07L9.37392 15.8398C9.68 16.1911 9.86536 16.6504 9.86536 17.153C9.86536 18.2575 8.96993 19.153 7.86536 19.153C7.83654 19.153 7.80788 19.1523 7.77936 19.1511C7.83505 19.308 7.86536 19.477 7.86536 19.653C7.86536 20.4814 7.19378 21.153 6.36536 21.153C5.71159 21.153 5.15551 20.7347 4.95009 20.1512C4.92199 20.1524 4.89374 20.153 4.86536 20.153C3.76079 20.153 2.86536 19.2575 2.86536 18.153C2.86536 17.0484 3.76079 16.153 4.86536 16.153C5.27702 16.153 5.65963 16.2773 5.97766 16.4905C6.25101 15.7115 6.99295 15.153 7.86536 15.153C7.88981 15.153 7.91416 15.1534 7.93841 15.1543C7.94228 15.1502 7.94621 15.1462 7.95019 15.1422L12.0396 11.0528C11.2661 9.86959 11.399 8.26725 12.4382 7.22803L14.5606 5.10568C14.1574 4.97681 13.8654 4.59898 13.8654 4.15295C13.8654 3.60067 14.3131 3.15295 14.8654 3.15295C15.3114 3.15295 15.6892 3.44498 15.8181 3.84827ZM16.8195 5.67532L18.3062 7.16198L15.3392 10.1289C14.9286 10.5394 14.263 10.5394 13.8525 10.1289C13.4419 9.71836 13.4419 9.05276 13.8525 8.64223L16.8195 5.67532ZM8.36536 17.153C8.36536 17.4291 8.1415 17.653 7.86536 17.653C7.58921 17.653 7.36536 17.4291 7.36536 17.153C7.36536 16.8768 7.58921 16.653 7.86536 16.653C8.1415 16.653 8.36536 16.8768 8.36536 17.153ZM4.86536 18.653C5.1415 18.653 5.36536 18.4291 5.36536 18.153C5.36536 17.8768 5.1415 17.653 4.86536 17.653C4.58921 17.653 4.36536 17.8768 4.36536 18.153C4.36536 18.4291 4.58921 18.653 4.86536 18.653Z" fill="currentColor"/>
<path d="M18.2705 3.59015C18.6611 3.19963 19.2942 3.19964 19.6848 3.59016L20.3919 4.29727C20.7824 4.68779 20.7824 5.32095 20.3919 5.71147L20.0383 6.06501L17.917 3.94369L18.2705 3.59015Z" fill="currentColor"/>
</svg>
