<svg width="24" height="24" viewBox="0 0 24 24" fill="none" xmlns="http://www.w3.org/2000/svg">
<path fill-rule="evenodd" clip-rule="evenodd" d="M4 17.0639V3.35388L5.29396 4.78719L9.93756 9.64451C10.4115 9.33894 11.1283 9.00005 12 9.00005C12.8717 9.00005 13.5885 9.33894 14.0624 9.64451L18.7062 4.78705L20 3.35389V17.064C19.8262 17.4257 19.632 17.7877 19.4184 18.1362C18.5997 19.4723 17.2526 21.0001 15.3684 21.0001C13.9728 21.0001 12.9172 20.2132 12.259 19.533C12.1674 19.4384 12.0811 19.3433 12 19.2493C11.919 19.3433 11.8326 19.4384 11.741 19.533C11.0828 20.2132 10.0272 21.0001 8.63159 21.0001C6.74742 21.0001 5.40036 19.4723 4.58158 18.1362C4.36801 17.7877 4.17379 17.4257 4 17.0639ZM12 17C12.6904 17 13.25 16.4404 13.25 15.75C13.25 15.0597 12.6904 14.5 12 14.5C11.3096 14.5 10.75 15.0597 10.75 15.75C10.75 16.4404 11.3096 17 12 17Z" fill="currentColor"/>
</svg>
