<svg width="24" height="24" viewBox="0 0 24 24" fill="none" xmlns="http://www.w3.org/2000/svg">
<path fill-rule="evenodd" clip-rule="evenodd" d="M8.5 2V4.12347C9.10047 4.29686 9.61185 4.64744 9.94531 5.14055L11.293 3.79289L12.7072 5.20711L10.5537 7.36056C10.9183 8.95554 11.4655 10.0464 11.8824 10.7035L13.793 8.79289L15.2072 10.2071L13.2959 12.1183C13.8839 12.4662 14.8334 12.8865 16.2888 13.1865L17.6056 10.5528L19.3945 11.4472L18.2654 13.7055C19.4491 14.3943 20.2274 15.9382 19.9402 17.425L21.0547 18.1679L19.9453 19.8321L18.9723 19.1834C18.4009 19.6925 17.5293 19.9513 16.5 19.9937V22H14.5V19.8425C13.4286 19.6537 12.2966 19.3 11.2141 18.8077L10.3943 20.4472L8.60547 19.5528L9.45602 17.8517C8.7956 17.426 8.18444 16.9455 7.65499 16.4179C7.62856 16.3916 7.60223 16.365 7.57602 16.3383L6.20718 17.7071L4.79297 16.2929L6.29297 14.7929L6.38682 14.8867C5.78399 14.0154 5.2761 13.0459 4.88589 12.0593L3.24264 12.4701L2.75757 10.5299L4.28329 10.1484C4.02905 9.06483 3.93829 8.02467 4.04223 7.13917L2.55273 6.39443L3.44716 4.60557L4.76548 5.26473C4.83184 5.18788 4.90276 5.11618 4.97833 5.04996C5.45982 4.62799 5.97974 4.34158 6.5 4.17585V2H8.5ZM8 8.5C8.55228 8.5 9 8.05229 9 7.5C9 6.94772 8.55228 6.5 8 6.5C7.44772 6.5 7 6.94772 7 7.5C7 8.05229 7.44772 8.5 8 8.5ZM9 12C9 12.5523 8.55228 13 8 13C7.44772 13 7 12.5523 7 12C7 11.4477 7.44772 11 8 11C8.55228 11 9 11.4477 9 12ZM17 17C17 17.5523 16.5523 18 16 18C15.4477 18 15 17.5523 15 17C15 16.4477 15.4477 16 16 16C16.5523 16 17 16.4477 17 17ZM13 15C13 15.5523 12.5523 16 12 16C11.4477 16 11 15.5523 11 15C11 14.4477 11.4477 14 12 14C12.5523 14 13 14.4477 13 15Z" fill="currentColor"/>
</svg>
