<svg width="24" height="24" viewBox="0 0 24 24" fill="none" xmlns="http://www.w3.org/2000/svg">
<path d="M6.19448 14.9513V21H14.5516V18.1747C14.4447 18.167 14.3373 18.1583 14.2296 18.1486C13.1931 18.0553 12.0453 17.8612 11.1646 17.4208C10.7941 17.2356 10.6439 16.7851 10.8292 16.4146C11.0144 16.0441 11.4649 15.8939 11.8354 16.0792C12.4547 16.3888 13.3694 16.5651 14.3641 16.6546C15.3215 16.7408 16.2694 16.7408 16.9579 16.7407L17 16.7407V16.75H17.7136C18.2659 16.75 18.7136 16.3023 18.7136 15.75V13.3719H19.3687C20.1105 13.3719 20.5974 12.5928 20.2769 11.9238C19.5257 10.3561 18.3557 7.8498 17.7056 6.13026C17.5306 5.66747 17.1917 5.35847 16.7656 4.97004C16.7171 4.92577 16.6673 4.88039 16.6166 4.83372C15.4316 3.7428 14.0817 3 11.0428 3C5.13005 3 3.62302 6.92022 3.62305 8.96112C3.62308 11.832 5.32894 14.059 6.19448 14.9513Z" fill="currentColor"/>
</svg>
