<svg width="24" height="24" viewBox="0 0 24 24" fill="none" xmlns="http://www.w3.org/2000/svg">
<path fill-rule="evenodd" clip-rule="evenodd" d="M13.4864 2.08252C14.3148 2.08252 14.9864 2.75409 14.9864 3.58252V5.00702C14.9864 5.95307 14.3208 6.46156 13.9168 6.66267C13.5444 6.84807 13.1317 6.92526 12.8489 6.96879C12.5501 7.01476 12.2151 7.04697 11.9132 7.07598C11.9011 7.07715 11.8891 7.07831 11.8771 7.07946C11.5485 7.11108 11.235 7.14171 10.9274 7.18545C10.2753 7.27818 9.85268 7.40629 9.61755 7.55606C9.52243 7.61664 9.4731 7.65599 9.4547 7.76666C9.46013 7.7694 9.46583 7.77221 9.47178 7.77509C9.555 7.81531 9.67304 7.86065 9.83443 7.90656C10.4954 8.09458 11.4022 8.17259 12.5362 8.27014C12.6245 8.27774 12.7142 8.28545 12.8052 8.29334C13.945 8.39218 15.3372 8.52218 16.4473 8.93251C17.0202 9.14427 17.6378 9.47132 18.1191 10.012C18.6317 10.5877 18.9052 11.3121 18.9052 12.1295C18.9052 13.0141 18.5587 13.7752 17.9324 14.3272C17.3672 14.8252 16.6657 15.0731 16.0485 15.2133C14.8704 15.4811 13.3821 15.4793 12.1176 15.4777C12.0777 15.4777 12.038 15.4776 11.9985 15.4776C10.5861 15.4762 9.42995 15.4842 8.61999 15.6705C8.31736 15.7401 8.16263 15.8145 8.09481 15.8562C8.09693 16.0447 8.14063 16.1087 8.15294 16.1265C8.17391 16.1568 8.237 16.2297 8.42006 16.3165C8.83631 16.514 9.51811 16.6239 10.4425 16.6635C10.8682 16.6817 11.2974 16.6842 11.7323 16.6867L11.7765 16.687C12.2101 16.6895 12.669 16.6925 13.075 16.7184C13.4491 16.7422 13.9425 16.7924 14.3789 16.9615C14.6069 17.0498 14.9228 17.209 15.1916 17.5075C15.4915 17.8405 15.6621 18.2702 15.6621 18.734V20.4172C15.6621 21.2456 14.9905 21.9175 14.1621 21.9175C13.3336 21.9175 12.6621 21.246 12.6621 20.4175V19.7013C12.405 19.6915 12.1069 19.689 11.7589 19.6869L11.698 19.6866C11.2758 19.6841 10.7968 19.6814 10.3143 19.6607C9.34684 19.6193 8.1368 19.5026 7.13419 19.027C6.60781 18.7772 6.0797 18.402 5.68683 17.8348C5.28561 17.2556 5.09473 16.5758 5.09473 15.8419C5.09473 14.9578 5.43865 14.1956 6.06323 13.641C6.62779 13.1396 7.32934 12.889 7.94773 12.7468C9.13272 12.4743 10.63 12.476 11.8991 12.4775C11.9334 12.4775 11.9675 12.4776 12.0015 12.4776C13.4148 12.479 14.5719 12.4724 15.3836 12.2879C15.68 12.2206 15.8348 12.1484 15.9049 12.1067C15.9023 12.0273 15.8867 12.0139 15.8802 12.0085L15.8784 12.0068C15.8424 11.9664 15.721 11.8625 15.4071 11.7464C14.7436 11.5012 13.771 11.3883 12.546 11.2821C12.438 11.2728 12.3275 11.2634 12.2151 11.2539C11.1772 11.1663 9.97102 11.0644 9.01362 10.7921C8.47254 10.6382 7.85057 10.3895 7.34644 9.93364C6.78671 9.42752 6.44604 8.72947 6.44604 7.89919C6.44604 6.56521 7.09288 5.60726 8.00589 5.02573C8.80957 4.51383 9.77209 4.31955 10.5051 4.21532C10.89 4.16059 11.2691 4.12411 11.5897 4.09325C11.7365 4.07913 11.8678 4.06645 11.9864 4.05399V3.58315C11.9864 2.75473 12.658 2.08252 13.4864 2.08252Z" fill="currentColor"/>
</svg>
