<svg width="24" height="24" viewBox="0 0 24 24" fill="none" xmlns="http://www.w3.org/2000/svg">
<path d="M16.75 3H7.76911C7.22175 3 6.68142 3.1233 6.18825 3.36076C4.92694 3.96805 4.12502 5.2442 4.12502 6.64409V14.7291L3.33614 15.1468C3.18075 15.229 3 15.3319 3 15.5077C3 17.4316 3.51535 19.6515 5.25 20.606L5.53125 20.8011C6.01322 21.0663 7.86178 21.0663 8.34375 20.8011L8.625 20.606C10.3597 19.6515 10.875 17.4316 10.875 15.5077C10.875 15.3319 10.6943 15.229 10.5389 15.1468L9.75002 14.7291V10.3958C9.75002 8.90004 11.5717 7.68748 13.125 7.68748V12.5625C13.125 14.6565 14.8879 16.3541 17.0625 16.3541C19.2371 16.3541 21 14.6565 21 12.5625V3.59036C21 3.26431 20.7357 3 20.4096 3H18.25V7.93866C18.7072 8.30519 19 8.8684 19 9.5V12.5C19 13.6046 18.1046 14.5 17 14.5C15.8954 14.5 15 13.6046 15 12.5V9.5C15 8.4801 15.7634 7.6385 16.75 7.51547V3Z" fill="currentColor"/>
</svg>
