<svg width="24" height="24" viewBox="0 0 24 24" fill="none" xmlns="http://www.w3.org/2000/svg">
<path d="M10.9322 4.4691C10.9101 4.06628 10.8744 3.42599 10.6095 2.91315C10.4627 2.62902 10.232 2.35278 9.87845 2.1778C9.52942 2.00504 9.13602 1.9683 8.72776 2.02425C8.35755 2.07499 8.02424 2.22442 7.76006 2.47916C7.50167 2.72833 7.3509 3.03792 7.26888 3.34741C7.11042 3.94531 7.17959 4.64784 7.33687 5.30842C7.65549 6.64672 8.42818 8.18587 9.29959 9.23598C9.44217 9.4078 9.54627 9.63259 9.61381 9.86824C9.6815 10.1044 9.70065 10.31 9.70065 10.4075V10.4757L11.2076 10.8069V10.4075C11.2076 9.97372 11.0706 9.01475 10.4615 8.28074C9.7364 7.40696 9.06836 6.07606 8.80324 4.96253C8.66865 4.3972 8.6602 3.97837 8.72602 3.73001C8.75614 3.61637 8.79299 3.5716 8.80864 3.55651C8.81851 3.54699 8.84568 3.52225 8.93334 3.51023C9.12737 3.48364 9.1979 3.51617 9.20746 3.5209C9.21336 3.52377 9.23607 3.53481 9.26924 3.59902C9.36398 3.78244 9.40246 4.0946 9.42795 4.56077L9.43256 4.64726C9.44203 4.82732 9.4528 5.03223 9.4756 5.21028C9.49809 5.38587 9.54822 5.71 9.74884 5.96949C9.86882 6.12467 10.0483 6.2649 10.2899 6.32357C10.5184 6.37909 10.728 6.34335 10.8873 6.29028C11.1818 6.19222 11.465 5.98042 11.73 5.74547C11.7506 5.72723 11.7637 5.71998 11.7696 5.71704C11.7756 5.71408 11.7831 5.71118 11.7959 5.70845C11.832 5.70076 11.8773 5.69848 12.0055 5.70035L12.0143 5.7012C12.0225 5.70587 12.0428 5.71882 12.0764 5.74859C12.3413 5.9835 12.6245 6.19528 12.919 6.29334C13.0783 6.3464 13.2878 6.38214 13.5164 6.32662C13.7579 6.26795 13.9374 6.12773 14.0574 5.97256C14.258 5.71308 14.3081 5.38898 14.3306 5.21342C14.3534 5.03538 14.3641 4.83054 14.3736 4.6505L14.3782 4.564C14.4037 4.09791 14.4422 3.78583 14.5369 3.60248C14.57 3.5383 14.5922 3.52752 14.5981 3.52467C14.6076 3.51995 14.6786 3.48718 14.8726 3.51377C14.9566 3.52527 14.9781 3.54761 14.9818 3.55142C14.9904 3.55999 15.0241 3.59854 15.0498 3.71002C15.1065 3.95581 15.0842 4.37488 14.9307 4.94421C14.6293 6.06228 13.922 7.40119 13.1901 8.28324C12.581 9.01716 12.444 9.976 12.444 10.4097L12.444 10.7837L13.951 10.4525V10.4097C13.951 10.3123 13.9701 10.1067 14.0378 9.87059C14.1053 9.635 14.2094 9.41026 14.3519 9.23849C15.2162 8.19698 16.0267 6.66633 16.3862 5.333C16.5632 4.67663 16.6571 3.97453 16.5186 3.37421C16.4467 3.06263 16.3045 2.74654 16.0476 2.4909C15.7845 2.22921 15.449 2.07862 15.0782 2.02779C14.67 1.97184 14.2766 2.00858 13.9276 2.18132C13.5741 2.35629 13.3434 2.6325 13.1967 2.9166C12.9326 3.42788 12.8962 4.06584 12.8742 4.4688C12.7151 4.36099 12.5584 4.2924 12.4021 4.25137C12.3183 4.21933 12.2272 4.20177 12.1321 4.20177C12.1099 4.20177 12.0867 4.20145 12.0582 4.20099C11.9778 4.19759 11.8795 4.19894 11.8182 4.19979C11.7989 4.20006 11.7832 4.20027 11.773 4.20027C11.7129 4.20027 11.6544 4.20728 11.5984 4.22052C11.3976 4.24972 11.1656 4.31713 10.9322 4.4691Z" fill="currentColor"/>
<path d="M9.70065 22.0038L9.70065 18.7042L11.2076 17.2689L11.2076 22.0038H9.70065Z" fill="currentColor"/>
<path d="M12.444 22.0038L12.444 17.3692L13.951 18.8046L13.951 22.0038H12.444Z" fill="currentColor"/>
<path fill-rule="evenodd" clip-rule="evenodd" d="M22 9.20151V15.1662C22 16.0609 21.638 19.3414 18.3801 19.3414C16.7941 19.3414 16.0981 18.488 15.3839 17.6122C14.631 16.6889 13.8577 15.7407 12 15.7407C10.1424 15.7407 9.3691 16.6889 8.61617 17.6122C7.90188 18.488 7.20592 19.3414 5.61989 19.3414C2.36203 19.3414 2 16.0609 2 15.1662V9.20151C2 4.411 4.70444 3.24008 6.02688 6.51742C6.10564 6.71261 6.18633 6.93356 6.27348 7.17221C6.97515 9.09365 8.09562 12.1619 12 12.1619C15.9044 12.1619 17.0248 9.09375 17.7265 7.17231C17.8136 6.93364 17.8943 6.71262 17.9731 6.51742C19.2956 3.24008 22 4.411 22 9.20151ZM4.99853 10.0839C5.41467 10.0839 5.75202 9.74808 5.75202 9.33386C5.75202 8.91965 5.41467 8.58386 4.99853 8.58386C4.58238 8.58386 4.24503 8.91965 4.24503 9.33386C4.24503 9.74808 4.58238 10.0839 4.99853 10.0839ZM6.9767 12.3335C6.9767 12.7477 6.63935 13.0835 6.2232 13.0835C5.80706 13.0835 5.46971 12.7477 5.46971 12.3335C5.46971 11.9193 5.80706 11.5835 6.2232 11.5835C6.63935 11.5835 6.9767 11.9193 6.9767 12.3335ZM8.73216 14.938C9.1483 14.938 9.48565 14.6022 9.48565 14.188C9.48565 13.7738 9.1483 13.438 8.73216 13.438C8.31601 13.438 7.97866 13.7738 7.97866 14.188C7.97866 14.6022 8.31601 14.938 8.73216 14.938ZM5.75202 15.333C5.75202 15.7472 5.41467 16.083 4.99853 16.083C4.58238 16.083 4.24503 15.7472 4.24503 15.333C4.24503 14.9188 4.58238 14.583 4.99853 14.583C5.41467 14.583 5.75202 14.9188 5.75202 15.333ZM18.959 10.0839C18.5429 10.0839 18.2055 9.74808 18.2055 9.33386C18.2055 8.91965 18.5429 8.58386 18.959 8.58386C19.3752 8.58386 19.7125 8.91965 19.7125 9.33386C19.7125 9.74808 19.3752 10.0839 18.959 10.0839ZM16.9809 12.3335C16.9809 12.7477 17.3182 13.0835 17.7344 13.0835C18.1505 13.0835 18.4879 12.7477 18.4879 12.3335C18.4879 11.9193 18.1505 11.5835 17.7344 11.5835C17.3182 11.5835 16.9809 11.9193 16.9809 12.3335ZM18.959 16.083C18.5429 16.083 18.2055 15.7472 18.2055 15.333C18.2055 14.9188 18.5429 14.583 18.959 14.583C19.3752 14.583 19.7125 14.9188 19.7125 15.333C19.7125 15.7472 19.3752 16.083 18.959 16.083ZM14.5134 14.188C14.5134 14.6022 14.8507 14.938 15.2669 14.938C15.683 14.938 16.0204 14.6022 16.0204 14.188C16.0204 13.7738 15.683 13.438 15.2669 13.438C14.8507 13.438 14.5134 13.7738 14.5134 14.188Z" fill="currentColor"/>
</svg>
